<?xml version="1.0" standalone="no"?>
<!DOCTYPE svg PUBLIC "-//W3C//DTD SVG 20010904//EN"
 "http://www.w3.org/TR/2001/REC-SVG-20010904/DTD/svg10.dtd">
<svg version="1.0" xmlns="http://www.w3.org/2000/svg"
 width="985.000000pt" height="985.000000pt" viewBox="0 0 985.000000 985.000000"
 preserveAspectRatio="xMidYMid meet">
<metadata>
Created by potrace 1.14, written by Peter Selinger 2001-2017
</metadata>
<g transform="translate(0.000000,985.000000) scale(0.100000,-0.100000)"
fill="#000000" stroke="none">
<path d="M4600 9839 c-877 -65 -1655 -325 -2373 -795 -295 -193 -530 -386
-792 -648 -952 -955 -1468 -2252 -1431 -3596 26 -955 303 -1829 830 -2615 610
-911 1500 -1590 2536 -1935 548 -182 1076 -260 1675 -247 750 17 1426 185
2098 523 560 281 1072 679 1500 1165 370 420 701 977 901 1516 314 847 390
1783 215 2668 -124 629 -367 1222 -724 1765 -75 115 -280 389 -344 460 -22 25
-60 68 -83 97 -134 161 -486 485 -723 664 -391 296 -871 554 -1325 711 -428
148 -865 237 -1318 268 -173 11 -484 11 -642 -1z m79 -587 c11 -22 -6 -59 -71
-155 l-40 -58 7 -92 c6 -100 0 -121 -36 -115 -31 4 -49 42 -49 105 0 73 -10
92 -90 176 -69 73 -82 101 -58 125 23 23 47 11 110 -57 l64 -69 50 79 c42 67
53 79 76 79 16 0 31 -7 37 -18z m854 -15 c86 -37 137 -112 137 -203 0 -75 -27
-129 -85 -173 -39 -29 -56 -34 -113 -38 -59 -4 -74 -1 -122 24 -166 85 -157
314 15 389 39 17 127 18 168 1z m-1432 -37 c24 -13 25 -56 1 -69 -9 -5 -34
-12 -55 -16 -20 -4 -40 -12 -43 -17 -4 -5 9 -77 27 -159 35 -156 34 -180 -5
-187 -32 -7 -45 20 -81 174 -26 109 -41 154 -50 150 -7 -2 -33 -8 -59 -11 -50
-8 -76 4 -76 35 0 30 28 43 168 76 164 38 149 36 173 24z m2050 -82 c118 -33
139 -50 118 -89 -12 -24 -38 -23 -151 7 -37 10 -69 16 -72 13 -2 -2 -7 -18
-10 -35 l-7 -31 68 -18 c37 -9 78 -24 91 -31 26 -17 29 -46 6 -65 -16 -13 -22
-12 -170 27 -19 5 -23 -2 -40 -65 -10 -40 -26 -79 -35 -87 -22 -19 -56 -11
-64 17 -6 17 70 307 95 367 13 30 39 29 171 -10z m-2639 -80 c9 -7 45 -93 79
-192 67 -190 68 -208 16 -214 -27 -3 -41 13 -57 67 -4 14 -29 84 -54 155 -50
141 -55 170 -28 185 22 13 25 13 44 -1z m-339 -180 c10 -5 17 -20 17 -38 0
-32 -17 -40 -74 -37 -32 2 -58 -25 -40 -43 5 -5 50 -14 98 -19 79 -8 92 -12
118 -39 62 -62 42 -159 -42 -203 -88 -47 -208 6 -198 88 4 39 45 43 78 8 13
-14 35 -25 48 -25 50 0 83 58 45 78 -10 5 -50 12 -90 14 -84 6 -118 24 -139
73 -18 44 -8 89 27 125 40 39 98 47 152 18z m3751 -56 c136 -70 159 -90 140
-119 -16 -26 -47 -27 -94 -3 -22 11 -44 19 -48 16 -4 -2 -38 -65 -77 -140 -38
-75 -76 -138 -84 -141 -21 -8 -49 4 -56 25 -4 12 20 69 65 161 56 111 69 144
58 151 -7 5 -30 18 -51 29 -21 11 -40 26 -43 34 -9 22 15 55 39 55 12 -1 80
-31 151 -68z m-4186 -198 c51 -33 74 -102 52 -158 -9 -25 -7 -28 58 -59 61
-29 67 -35 67 -62 0 -25 -4 -30 -28 -33 -16 -2 -50 6 -75 19 -106 50 -105 49
-140 27 -18 -11 -32 -23 -32 -27 0 -3 16 -30 35 -58 19 -29 35 -58 35 -66 0
-20 -21 -37 -46 -37 -18 0 -42 30 -118 144 -113 172 -119 184 -112 202 6 15
131 98 181 120 34 16 88 10 123 -12z m4687 -114 c56 -27 100 -76 119 -133 30
-89 14 -152 -53 -218 -123 -119 -316 -65 -365 102 -52 174 134 329 299 249z
m-5213 -197 c10 -9 18 -22 18 -29 0 -6 -34 -43 -76 -82 l-76 -69 24 -28 24
-27 65 56 c75 66 112 73 117 20 3 -26 -5 -37 -58 -83 -33 -29 -60 -56 -60 -60
0 -4 13 -22 28 -41 l29 -34 76 67 c78 68 97 77 114 55 33 -43 31 -45 -121
-177 -63 -54 -73 -58 -98 -38 -38 30 -248 282 -248 298 0 19 187 188 209 188
8 1 23 -6 33 -16z m5735 -225 c105 -102 120 -138 89 -213 -19 -44 -58 -69
-120 -75 l-50 -5 -9 -45 c-14 -82 -17 -89 -37 -100 -27 -14 -60 4 -60 33 0 12
8 60 17 106 l18 83 -30 24 -29 23 -52 -49 c-29 -28 -59 -50 -67 -50 -24 0 -46
33 -37 55 12 29 262 285 279 285 7 0 47 -33 88 -72z m-6070 -343 c47 -99 86
-187 88 -197 2 -9 -5 -24 -16 -34 -18 -16 -23 -16 -111 10 -278 82 -317 96
-323 117 -5 15 -1 28 13 41 19 20 20 20 138 -17 66 -20 132 -41 147 -47 15 -6
29 -9 31 -7 2 2 -26 64 -61 137 -74 151 -78 186 -21 180 30 -3 34 -10 115
-183z m3771 49 c12 -8 45 -48 72 -89 27 -41 60 -81 72 -90 13 -8 126 -113 251
-233 126 -119 250 -230 275 -247 126 -80 218 -164 351 -320 165 -192 296 -356
315 -393 17 -33 103 -116 344 -331 100 -90 180 -166 178 -168 -2 -3 -53 20
-113 51 -71 37 -133 78 -183 122 -41 36 -111 95 -155 129 -44 35 -116 103
-159 151 -44 49 -184 193 -312 320 -200 198 -243 236 -306 269 -161 83 -262
153 -380 264 -27 24 -48 40 -48 35 1 -35 52 -220 75 -269 15 -33 36 -79 46
-103 l19 -43 -23 7 c-54 16 -216 126 -301 204 -47 43 -107 76 -179 97 l-50 15
-128 -128 c-124 -123 -128 -127 -137 -103 -20 51 -63 133 -99 189 l-37 58
-106 -97 c-135 -124 -178 -161 -190 -161 -6 0 -10 38 -10 89 0 49 -3 103 -6
120 l-7 32 -46 -44 c-69 -67 -182 -139 -196 -125 -2 1 6 53 16 113 11 61 18
116 17 124 -6 28 -112 -84 -153 -160 -31 -59 -69 -103 -180 -214 -100 -100
-141 -135 -143 -122 -2 9 4 51 12 94 9 42 15 77 14 79 -2 1 -62 -34 -134 -79
-72 -45 -169 -104 -216 -132 -84 -49 -87 -52 -159 -164 -95 -147 -137 -189
-287 -283 -98 -62 -167 -96 -350 -169 -363 -145 -514 -197 -543 -187 -6 2 163
91 373 198 326 165 388 200 417 235 52 63 115 136 263 306 124 142 147 163
252 233 91 61 147 109 265 229 82 84 186 199 232 257 45 58 140 171 211 253
70 81 135 158 144 172 l16 25 542 0 c475 0 544 -2 564 -16z m2713 -179 c27
-19 54 -51 72 -85 26 -49 28 -62 24 -119 -14 -187 -229 -264 -366 -131 -107
104 -83 280 48 351 28 15 52 19 108 16 61 -2 78 -7 114 -32z m-6823 -303 c120
-81 152 -108 152 -126 0 -26 -17 -46 -40 -46 -9 0 -63 32 -121 71 -179 123
-209 147 -209 173 0 24 36 49 55 38 6 -3 79 -53 163 -110z m7175 -212 c13 -19
9 -36 -49 -182 -35 -88 -64 -164 -64 -169 0 -5 52 17 114 48 113 56 115 57
135 38 26 -22 26 -37 4 -57 -27 -24 -328 -178 -347 -178 -9 0 -21 10 -27 23
-8 18 1 51 56 186 36 90 64 165 62 168 -3 2 -53 -21 -111 -52 -73 -39 -112
-55 -126 -50 -23 7 -38 51 -22 67 18 18 326 177 344 177 9 1 23 -8 31 -19z
m-7378 -91 c99 -52 157 -89 161 -101 6 -21 -20 -58 -43 -58 -7 0 -68 -13 -136
-29 -67 -16 -137 -32 -155 -36 -18 -4 -30 -10 -28 -13 3 -4 52 -32 110 -62
107 -56 121 -68 111 -101 -13 -39 -42 -31 -205 52 -162 82 -190 100 -190 122
1 35 30 45 287 102 45 10 80 22 77 27 -3 5 -47 29 -97 54 -130 65 -146 83
-111 119 23 23 41 17 219 -76z m7662 -491 c5 -7 31 -79 58 -159 43 -127 47
-149 36 -163 -8 -10 -25 -16 -39 -14 -20 2 -30 14 -46 53 -11 28 -21 52 -23
55 -2 2 -71 -18 -154 -45 -161 -53 -181 -53 -187 -3 -4 29 4 33 185 94 60 20
112 40 117 44 4 5 1 31 -9 59 -12 38 -14 55 -5 70 12 23 52 28 67 9z m-8003
-93 c132 -42 177 -75 195 -142 15 -52 14 -77 -4 -121 -31 -74 -86 -112 -161
-112 -47 0 -257 61 -282 82 -18 15 -11 48 13 63 17 11 37 7 139 -27 75 -24
129 -37 144 -33 37 9 72 53 72 90 0 57 -30 82 -143 116 -122 37 -147 51 -147
84 0 24 26 47 45 41 6 -2 63 -20 129 -41z m8084 -511 c84 -35 136 -115 135
-210 -1 -87 -43 -158 -115 -195 -59 -30 -159 -24 -216 14 -95 63 -128 200 -70
298 56 95 168 134 266 93z m-6765 -249 c74 -51 71 -30 77 -600 l5 -510 28 -56
c59 -120 156 -193 293 -220 159 -32 333 63 408 221 l31 65 -3 405 c-1 223 2
454 6 513 9 118 20 142 83 185 29 20 44 23 101 20 72 -4 104 -20 142 -72 20
-25 21 -45 27 -284 3 -141 3 -387 -1 -547 -6 -285 -7 -292 -35 -374 -74 -217
-247 -384 -480 -462 -61 -21 -89 -24 -220 -24 -130 0 -159 3 -219 23 -240 80
-409 243 -487 469 -10 31 -24 107 -29 167 -11 129 -12 876 -1 954 14 97 77
152 175 152 49 0 69 -5 99 -25z m2799 -7 c74 -56 89 -174 31 -245 -56 -69 -71
-73 -315 -73 l-218 0 0 -634 c0 -445 -3 -643 -11 -667 -7 -19 -25 -49 -42 -66
-81 -86 -236 -63 -287 43 -19 39 -20 62 -20 682 l0 642 -217 0 c-191 0 -223 3
-259 19 -75 34 -111 117 -89 204 13 51 34 80 80 109 29 17 60 18 671 16 l641
-3 35 -27z m1306 13 c45 -23 66 -46 81 -90 15 -46 16 -1077 0 -1153 -60 -299
-318 -508 -629 -508 -260 0 -477 139 -585 374 -40 87 -55 155 -55 248 0 82 21
130 75 167 116 79 274 -9 275 -155 0 -63 28 -129 76 -183 135 -150 379 -119
470 60 l24 48 0 430 0 430 -253 3 -254 3 -37 29 c-102 77 -97 228 9 292 l40
24 363 0 c336 0 365 -1 400 -19z m1142 -2 c19 -12 42 -31 50 -43 19 -27 114
-230 190 -406 56 -131 85 -194 156 -348 19 -41 34 -75 34 -78 0 -2 11 -27 24
-56 13 -29 42 -93 64 -143 22 -49 72 -162 111 -250 88 -195 104 -249 89 -302
-15 -55 -42 -88 -91 -112 -50 -24 -74 -26 -130 -9 -63 19 -98 63 -157 197
l-53 121 -382 0 -382 0 -18 -47 c-38 -101 -98 -214 -126 -238 -110 -92 -275
-25 -287 117 -4 51 3 68 137 370 77 175 149 337 160 360 11 24 97 214 191 423
94 208 180 391 190 406 43 60 162 79 230 38z m-2522 -1858 c7 -4 16 -33 19
-64 l6 -57 151 0 c163 0 176 -4 176 -50 0 -37 -18 -50 -71 -50 l-47 0 -22 -55
c-27 -66 -102 -190 -138 -228 l-27 -28 25 -19 c35 -27 167 -91 215 -105 34
-10 40 -16 43 -43 3 -26 -2 -35 -29 -51 -29 -18 -34 -18 -83 -4 -64 19 -115
45 -188 94 -32 22 -62 39 -68 39 -6 0 -37 -18 -69 -40 -79 -54 -183 -100 -225
-100 -25 0 -40 7 -55 26 -27 34 -15 58 36 75 51 16 182 82 212 106 l24 20 -42
53 c-40 51 -131 223 -131 248 0 8 -17 12 -47 12 -71 0 -104 40 -66 82 14 16
33 18 165 18 l148 0 0 47 c0 67 42 103 88 74z m-944 -45 c3 -11 6 -45 6 -73
l0 -53 144 0 c153 0 176 -7 176 -50 0 -41 -25 -50 -146 -50 l-115 0 17 -32
c38 -75 111 -156 222 -250 37 -30 39 -47 14 -78 -28 -35 -65 -29 -122 19 -46
39 -50 40 -50 20 0 -41 -38 -69 -92 -69 l-48 0 0 -48 c0 -58 -21 -92 -57 -92
-36 0 -52 27 -53 88 l0 52 -48 0 c-57 0 -92 21 -92 56 0 13 -2 24 -5 24 -3 0
-28 -18 -56 -40 -28 -22 -57 -40 -65 -40 -8 0 -26 11 -39 25 -21 21 -23 28
-14 48 6 14 22 31 36 38 39 21 140 136 183 208 l40 66 -112 3 c-86 2 -116 6
-130 19 -22 20 -23 41 -1 65 14 16 33 18 160 18 l143 0 0 63 c0 67 4 78 34 94
26 14 62 -2 70 -31z m2686 -11 c5 -29 7 -30 70 -33 71 -3 90 -13 90 -46 0 -43
-14 -46 -205 -46 -191 0 -205 3 -205 46 0 33 19 43 90 46 56 3 65 6 68 23 7
42 11 46 49 43 33 -3 39 -7 43 -33z m-3412 -5 c22 -21 22 -24 22 -355 l0 -335
-25 -16 c-22 -14 -30 -15 -50 -4 -14 7 -25 22 -25 32 0 17 -12 18 -189 18
-183 0 -190 -1 -196 -21 -15 -46 -88 -44 -100 4 -3 12 -5 165 -3 340 l3 319
24 19 c21 18 42 19 270 19 235 0 248 -1 269 -20z m2480 -16 c2 -20 -9 -52 -33
-97 l-36 -66 1 -266 c1 -282 -1 -295 -46 -295 -47 0 -54 28 -54 234 l0 190
-28 -27 c-34 -32 -46 -33 -72 -7 -33 33 -25 62 44 144 35 42 78 105 96 139 45
86 48 88 89 85 32 -3 36 -6 39 -34z m182 17 c5 -11 10 -74 10 -140 0 -67 2
-121 5 -121 3 0 46 27 96 60 92 62 114 69 141 48 23 -19 28 -44 13 -65 -15
-21 -109 -80 -203 -127 l-53 -27 3 -132 3 -132 89 -3 c55 -2 93 1 100 8 6 6
16 32 21 58 8 38 15 48 33 50 31 5 62 -24 62 -57 0 -46 -19 -97 -46 -122 -25
-23 -31 -24 -170 -24 -173 0 -180 4 -194 106 -14 92 -13 569 1 608 9 26 16 31
45 31 23 0 37 -6 44 -19z m1238 -17 c32 -22 28 -55 -19 -173 l-40 -103 20 -22
c37 -39 61 -107 61 -174 0 -74 -18 -115 -61 -137 -41 -22 -78 -16 -102 16 -15
22 -17 30 -8 48 7 11 20 21 29 21 52 0 58 86 12 169 -36 65 -38 112 -9 193 23
64 20 88 -8 83 -10 -2 -30 -4 -45 -4 l-28 -1 0 -308 c0 -226 -3 -311 -12 -320
-18 -18 -53 -15 -71 6 -15 17 -17 54 -14 351 l2 333 24 19 c20 16 40 19 135
19 85 0 117 -4 134 -16z m-588 -160 c12 -37 3 -66 -28 -83 -12 -8 6 -10 70
-11 l87 0 -14 26 c-9 17 -10 35 -5 55 13 43 19 49 50 49 43 0 53 -26 29 -79
-10 -24 -19 -45 -19 -47 0 -2 15 -4 34 -4 35 0 66 -21 66 -45 0 -7 -7 -21 -16
-29 -13 -13 -46 -16 -209 -16 -182 0 -195 1 -205 19 -5 11 -10 24 -10 30 0 20
33 41 66 41 37 0 40 6 24 60 -12 41 -5 67 18 72 32 7 51 -4 62 -38z m212 -261
c16 -14 18 -33 18 -148 0 -88 -4 -135 -12 -143 -19 -19 -66 -14 -80 8 -11 17
-24 20 -89 20 -68 0 -77 -2 -82 -20 -4 -14 -14 -20 -34 -20 -48 0 -53 13 -53
150 0 176 -7 170 172 170 118 0 145 -3 160 -17z m1580 -720 c259 -191 256
-189 238 -222 -11 -22 -48 -29 -210 -36 -192 -9 -188 -4 -71 -92 88 -65 102
-79 99 -101 -2 -14 -11 -30 -21 -36 -21 -14 -26 -11 -202 119 -136 101 -156
125 -122 153 14 12 195 32 287 32 91 0 91 10 -7 80 -119 85 -130 101 -97 134
23 24 36 20 106 -31z m-6799 -176 c47 -61 58 -81 51 -96 -14 -29 -221 -182
-261 -193 -117 -32 -226 93 -182 209 16 43 49 73 81 73 38 0 48 -39 19 -76
-39 -49 -22 -106 35 -120 26 -7 64 16 161 94 l42 34 -34 45 c-38 50 -44 86
-17 102 29 18 42 9 105 -72z m6447 -328 c60 -27 79 -45 106 -104 40 -84 29
-163 -33 -235 -106 -124 -297 -100 -364 45 -39 84 -15 190 57 253 71 63 153
78 234 41z m-6146 -25 c9 -8 16 -19 16 -24 0 -28 -155 -392 -171 -400 -42 -23
-68 18 -48 75 13 34 12 35 -42 94 -62 68 -76 75 -114 61 -33 -12 -61 -6 -69
17 -14 36 5 51 107 88 130 46 192 69 242 89 51 19 60 19 79 0z m333 -301 c103
-78 115 -89 129 -115 32 -61 9 -154 -46 -183 -66 -34 -141 -13 -222 62 l-26
25 -39 -51 c-21 -28 -48 -53 -61 -57 -29 -8 -54 13 -50 42 4 28 234 314 253
314 7 0 35 -17 62 -37z m5349 -110 c44 -54 87 -107 96 -117 38 -42 70 -95 66
-112 -5 -26 -34 -41 -55 -28 -22 13 -218 249 -238 285 -12 23 -12 29 1 48 27
38 48 25 130 -76z m-272 -79 c30 -29 18 -53 -49 -94 -21 -13 -32 -26 -28 -33
4 -7 42 -65 85 -131 43 -65 78 -129 78 -142 0 -25 -30 -47 -53 -38 -8 3 -54
63 -101 135 -47 71 -90 129 -94 129 -4 0 -24 -11 -44 -25 -60 -40 -98 -31 -98
25 0 12 44 46 131 104 72 47 137 86 144 86 8 0 21 -7 29 -16z m-4625 -137 c13
-16 -41 -411 -60 -433 -14 -17 -41 -18 -57 -2 -7 7 -12 32 -12 57 0 46 0 46
-68 86 -82 49 -86 50 -114 31 -43 -30 -94 -11 -86 31 4 25 326 242 359 242 15
1 32 -5 38 -12z m4232 -266 c206 -165 205 -164 191 -195 -14 -32 -51 -35 -77
-6 -10 11 -26 20 -36 20 -15 0 -141 -61 -158 -77 -3 -2 -4 -20 -4 -41 1 -20
-3 -43 -9 -49 -13 -17 -53 -17 -66 0 -16 18 -34 417 -20 434 23 28 57 12 179
-86z m-3878 57 c8 -13 34 -94 58 -180 24 -87 46 -158 49 -158 3 0 26 49 52
108 45 105 72 137 104 125 33 -13 25 -47 -51 -219 -110 -248 -126 -248 -197 1
-26 92 -50 170 -52 173 -3 3 -24 -35 -46 -84 -62 -138 -62 -139 -94 -139 -54
0 -54 22 2 146 101 228 112 249 138 249 14 0 29 -9 37 -22z m3375 -140 c6 -7
40 -91 77 -187 67 -173 67 -174 47 -193 -40 -40 -55 -20 -131 170 -39 97 -71
182 -71 188 0 30 57 46 78 22z m-294 -132 c19 -8 44 -24 55 -35 18 -18 19 -25
9 -46 -11 -25 -51 -35 -62 -16 -3 4 -25 14 -50 21 -39 11 -49 10 -88 -8 -36
-15 -50 -29 -68 -67 -20 -41 -21 -51 -11 -86 33 -108 189 -124 246 -25 29 50
52 58 80 30 36 -36 -18 -122 -99 -160 -116 -54 -255 -6 -302 105 -31 74 -8
185 49 239 61 58 168 79 241 48z m-2137 -48 c5 -7 20 -60 32 -118 12 -58 30
-145 40 -194 21 -101 18 -124 -15 -132 -31 -8 -50 9 -58 51 -7 37 -18 42 -129
66 l-59 13 -25 -32 c-29 -37 -67 -43 -83 -11 -9 16 -8 26 6 47 30 46 212 289
229 306 20 19 49 21 62 4z m1529 -77 c79 -36 131 -129 121 -218 -20 -176 -244
-255 -376 -131 -44 41 -63 89 -63 160 0 88 44 154 132 195 40 18 139 15 186
-6z m-1007 -27 c33 -27 41 -70 19 -92 -18 -18 -37 -14 -63 14 -29 31 -60 29
-60 -5 0 -18 15 -35 60 -66 77 -53 103 -100 86 -155 -14 -46 -59 -87 -106 -96
-90 -16 -175 51 -175 139 0 77 73 78 86 0 3 -15 12 -34 21 -40 21 -16 65 -17
81 -1 24 24 12 47 -45 86 -85 58 -98 76 -98 134 0 43 4 53 33 79 44 40 116 41
161 3z m426 -8 c39 -17 59 -48 51 -82 -5 -18 -13 -24 -35 -24 -16 0 -34 7 -41
16 -19 22 -65 14 -65 -11 0 -15 20 -31 75 -60 59 -31 79 -48 93 -77 46 -94
-43 -191 -158 -173 -55 8 -99 47 -116 104 -11 38 -11 44 8 63 27 26 61 16 69
-20 4 -15 14 -35 22 -44 18 -22 75 -24 92 -3 23 27 5 50 -70 90 -83 45 -115
86 -105 139 6 35 20 53 60 78 36 22 74 23 120 4z"/>
<path d="M5395 9150 c-95 -47 -103 -172 -15 -224 41 -23 121 -21 154 5 82 64
68 176 -27 220 -53 24 -63 23 -112 -1z"/>
<path d="M2592 8505 l-52 -36 22 -39 c13 -22 26 -40 31 -40 4 0 32 16 62 36
44 29 55 42 55 63 0 60 -43 66 -118 16z"/>
<path d="M7285 8416 c-89 -40 -108 -142 -39 -211 112 -112 289 26 201 156 -37
55 -109 80 -162 55z"/>
<path d="M7830 7995 l-34 -35 44 -45 c34 -35 51 -45 76 -45 32 0 44 13 44 49
0 9 -22 38 -48 64 l-48 47 -34 -35z"/>
<path d="M8180 7532 c-64 -32 -88 -117 -50 -180 40 -65 109 -87 176 -56 43 21
64 59 64 118 0 52 -34 100 -87 122 -43 18 -61 18 -103 -4z"/>
<path d="M8966 5819 c-80 -22 -118 -113 -80 -193 18 -36 77 -76 114 -76 91 0
159 116 116 198 -29 56 -93 86 -150 71z"/>
<path d="M7436 5000 c-16 -40 -64 -152 -107 -249 -44 -97 -79 -179 -79 -183 0
-5 99 -8 220 -8 121 0 220 1 220 3 0 2 -11 26 -25 54 -13 28 -59 131 -100 229
-109 254 -96 239 -129 154z"/>
<path d="M4860 3563 c1 -38 123 -223 147 -223 17 0 67 70 109 152 19 37 34 70
34 73 0 3 -65 5 -145 5 -80 0 -145 -3 -145 -7z"/>
<path d="M3950 3348 c-19 -28 -47 -67 -63 -85 l-29 -33 66 0 66 0 0 85 c0 47
-1 85 -3 85 -2 0 -19 -23 -37 -52z"/>
<path d="M4100 3317 l0 -87 66 0 66 0 -39 48 c-22 26 -52 65 -66 87 l-27 40 0
-88z"/>
<path d="M2917 3643 c-4 -3 -7 -46 -7 -95 l0 -88 185 0 185 0 0 95 0 95 -178
0 c-98 0 -182 -3 -185 -7z"/>
<path d="M2910 3265 l0 -95 185 0 185 0 0 95 0 95 -185 0 -185 0 0 -95z"/>
<path d="M6658 3229 c-5 -3 -8 -28 -6 -55 l3 -49 78 -3 77 -3 0 55 0 54 -71 4
c-39 2 -75 0 -81 -3z"/>
<path d="M7973 1984 c-102 -51 -94 -206 13 -243 36 -13 44 -12 87 7 54 24 87
70 87 120 0 102 -96 161 -187 116z"/>
<path d="M1803 1918 c-29 -11 -53 -24 -53 -27 0 -4 16 -22 35 -41 l34 -33 9
24 c5 13 17 41 25 62 18 43 19 42 -50 15z"/>
<path d="M2224 1633 l-28 -36 40 -33 c64 -54 79 -60 109 -40 38 25 31 49 -29
100 -29 25 -56 46 -58 46 -3 0 -18 -16 -34 -37z"/>
<path d="M2601 1258 c-42 -29 -43 -32 -25 -45 10 -8 31 -21 45 -28 26 -14 27
-14 33 23 8 50 8 82 -1 82 -5 -1 -28 -15 -52 -32z"/>
<path d="M6890 1096 c0 -36 14 -106 21 -106 4 0 25 10 45 22 l37 22 -43 38
c-45 40 -60 46 -60 24z"/>
<path d="M3967 705 c-20 -28 -37 -53 -37 -56 0 -4 23 -11 50 -16 28 -6 50 -7
49 -4 0 3 -6 33 -13 66 l-12 60 -37 -50z"/>
<path d="M5443 739 c-35 -10 -80 -58 -89 -96 -19 -74 48 -153 128 -153 109 0
173 108 118 198 -29 47 -97 69 -157 51z"/>
</g>
</svg>
